<?xml version="1.0" encoding="UTF-8" standalone="no"?>
<svg
   xmlns:dc="http://purl.org/dc/elements/1.1/"
   xmlns:cc="http://creativecommons.org/ns#"
   xmlns:rdf="http://www.w3.org/1999/02/22-rdf-syntax-ns#"
   xmlns:svg="http://www.w3.org/2000/svg"
   xmlns="http://www.w3.org/2000/svg"
   viewBox="0 0 473.16 225.13333"
   height="225.13333"
   width="473.16"
   xml:space="preserve"
   id="svg2"
   version="1.1"><metadata
     id="metadata8"><rdf:RDF><cc:Work
         rdf:about=""><dc:format>image/svg+xml</dc:format><dc:type
           rdf:resource="http://purl.org/dc/dcmitype/StillImage" /></cc:Work></rdf:RDF></metadata><defs
     id="defs6" /><g
     transform="matrix(1.3333333,0,0,-1.3333333,0,225.13333)"
     id="g10"><g
       transform="scale(0.1)"
       id="g12"><path
         id="path14"
         style="fill:#ffffff;fill-opacity:1;fill-rule:nonzero;stroke:none"
         d="m 1983.09,1084.2 c -32.99,0 -57.99,22.34 -57.99,67.03 0,44.68 25,67.03 57.99,67.03 18.09,0 29.52,-4.79 43.1,-19.42 l -13.04,-12.23 c -9.84,10.89 -17.56,14.62 -30.06,14.62 -12.76,0 -23.41,-5.05 -30.32,-14.9 -6.12,-8.5 -8.52,-18.61 -8.52,-35.1 0,-16.5 2.4,-26.6 8.52,-35.11 6.91,-9.85 17.56,-14.91 30.32,-14.91 12.5,0 20.22,4 30.06,14.91 l 13.04,-12.5 c -13.58,-14.63 -25.01,-19.42 -43.1,-19.42" /><path
         id="path16"
         style="fill:#ffffff;fill-opacity:1;fill-rule:nonzero;stroke:none"
         d="m 2123.93,1191.66 c -6.12,6.12 -14.64,9.57 -23.94,9.57 -9.31,0 -17.56,-3.45 -23.68,-9.57 -9.58,-9.57 -10.64,-25.8 -10.64,-40.43 0,-14.63 1.06,-30.85 10.64,-40.43 6.12,-6.13 14.37,-9.59 23.68,-9.59 9.3,0 17.82,3.46 23.94,9.59 9.57,9.58 10.37,25.8 10.37,40.43 0,14.63 -0.8,30.86 -10.37,40.43 z m 13.57,-92.57 c -9.05,-9.05 -21.56,-14.89 -37.51,-14.89 -15.96,0 -28.46,5.84 -37.5,14.89 -13.31,13.57 -15.97,31.92 -15.97,52.14 0,20.21 2.66,38.56 15.97,52.13 9.04,9.05 21.54,14.9 37.5,14.9 15.95,0 28.46,-5.85 37.51,-14.9 13.3,-13.57 15.95,-31.92 15.95,-52.13 0,-20.22 -2.65,-38.57 -15.95,-52.14" /><path
         id="path18"
         style="fill:#ffffff;fill-opacity:1;fill-rule:nonzero;stroke:none"
         d="m 2352.37,1085.79 v 80.6 c 0,23.15 -12.5,34.84 -32.19,34.84 -19.15,0 -32.71,-11.97 -32.71,-32.71 v -82.73 h -19.15 v 80.6 c 0,23.15 -12.5,34.84 -32.19,34.84 -19.69,0 -32.72,-11.97 -32.72,-34.84 v -80.6 h -19.16 v 130.87 h 19.16 v -14.36 c 9.31,10.63 22.35,15.96 36.98,15.96 18.08,0 32.18,-7.46 40.16,-21.81 10.11,14.35 24.74,21.81 43.09,21.81 14.1,0 25.8,-4.53 33.79,-12.24 9.3,-9.04 14.09,-21.28 14.09,-36.45 v -83.78 h -19.15" /><path
         id="path20"
         style="fill:#ffffff;fill-opacity:1;fill-rule:nonzero;stroke:none"
         d="m 2578.52,1085.79 v 80.6 c 0,23.15 -12.5,34.84 -32.19,34.84 -19.15,0 -32.71,-11.97 -32.71,-32.71 v -82.73 h -19.15 v 80.6 c 0,23.15 -12.5,34.84 -32.19,34.84 -19.69,0 -32.71,-11.97 -32.71,-34.84 v -80.6 h -19.16 v 130.87 h 19.16 v -14.36 c 9.3,10.63 22.34,15.96 36.97,15.96 18.08,0 32.19,-7.46 40.16,-21.81 10.11,14.35 24.74,21.81 43.09,21.81 14.1,0 25.8,-4.53 33.79,-12.24 9.31,-9.04 14.09,-21.28 14.09,-36.45 v -83.78 h -19.15" /><path
         id="path22"
         style="fill:#ffffff;fill-opacity:1;fill-rule:nonzero;stroke:none"
         d="m 2711.21,1182.35 c -5.06,11.97 -16.76,19.69 -30.6,19.69 -13.83,0 -25.54,-7.72 -30.59,-19.69 -2.93,-7.19 -3.45,-11.17 -3.99,-21.82 h 69.16 c -0.53,10.65 -1.06,14.63 -3.98,21.82 z m -65.18,-36.17 c 0,-28.73 13.56,-45.23 38.57,-45.23 15.16,0 23.94,4.52 34.31,14.89 l 13.04,-11.43 c -13.3,-13.29 -25.54,-20.21 -47.88,-20.21 -34.58,0 -57.19,20.75 -57.19,67.03 0,42.29 20.48,67.03 53.73,67.03 33.78,0 53.73,-24.47 53.73,-63.31 v -8.77 h -88.31" /><path
         id="path24"
         style="fill:#ffffff;fill-opacity:1;fill-rule:nonzero;stroke:none"
         d="m 2841.53,1191.66 c -7.18,7.18 -12.5,9.57 -22.61,9.57 -19.15,0 -31.39,-15.15 -31.39,-35.11 v -80.33 h -19.16 v 130.87 h 19.16 v -15.95 c 7.18,10.9 21.55,17.55 36.7,17.55 12.51,0 22.08,-2.92 31.4,-12.24 l -14.1,-14.36" /><path
         id="path26"
         style="fill:#ffffff;fill-opacity:1;fill-rule:nonzero;stroke:none"
         d="m 2919.42,1084.2 c -32.99,0 -57.99,22.34 -57.99,67.03 0,44.68 25,67.03 57.99,67.03 18.08,0 29.52,-4.79 43.09,-19.42 l -13.03,-12.23 c -9.85,10.89 -17.56,14.62 -30.06,14.62 -12.76,0 -23.41,-5.05 -30.32,-14.9 -6.13,-8.5 -8.52,-18.61 -8.52,-35.1 0,-16.5 2.39,-26.6 8.52,-35.11 6.91,-9.85 17.56,-14.91 30.32,-14.91 12.5,0 20.21,4 30.06,14.91 l 13.03,-12.5 c -13.57,-14.63 -25.01,-19.42 -43.09,-19.42" /><path
         id="path28"
         style="fill:#ffffff;fill-opacity:1;fill-rule:nonzero;stroke:none"
         d="m 3069.4,1182.35 c -5.06,11.97 -16.76,19.69 -30.6,19.69 -13.82,0 -25.53,-7.72 -30.58,-19.69 -2.93,-7.19 -3.46,-11.17 -4,-21.82 h 69.16 c -0.52,10.65 -1.06,14.63 -3.98,21.82 z m -65.18,-36.17 c 0,-28.73 13.57,-45.23 38.58,-45.23 15.15,0 23.93,4.52 34.3,14.89 l 13.04,-11.43 c -13.3,-13.29 -25.54,-20.21 -47.88,-20.21 -34.58,0 -57.19,20.75 -57.19,67.03 0,42.29 20.48,67.03 53.73,67.03 33.78,0 53.73,-24.47 53.73,-63.31 v -8.77 h -88.31" /><path
         id="path30"
         style="fill:#ffffff;fill-opacity:1;fill-rule:nonzero;stroke:none"
         d="m 2015.01,786.566 v 14.622 c -9.31,-10.637 -22.34,-16.211 -36.98,-16.211 -14.09,0 -25.8,4.246 -33.78,12.234 -9.3,9.035 -13.3,21.523 -13.3,36.68 v 83.515 h 19.15 V 836.82 c 0,-23.144 12.24,-34.832 31.93,-34.832 19.68,0 32.71,11.961 32.71,34.832 v 80.586 h 19.15 v -130.84 h -18.88" /><path
         id="path32"
         style="fill:#ffffff;fill-opacity:1;fill-rule:nonzero;stroke:none"
         d="m 2152.9,786.566 v 80.567 c 0,23.144 -12.5,34.855 -32.18,34.855 -19.69,0 -32.45,-11.972 -32.45,-34.855 v -80.567 h -19.16 v 130.84 h 19.16 v -14.355 c 9.3,10.644 22.07,15.957 36.7,15.957 14.1,0 25.53,-4.258 33.51,-12.235 9.32,-9.043 13.58,-21.281 13.58,-36.437 v -83.77 h -19.16" /><path
         id="path34"
         style="fill:#ffffff;fill-opacity:1;fill-rule:nonzero;stroke:none"
         d="m 2256.17,901.988 c -28.47,0 -32.99,-24.472 -32.99,-50.011 0,-25.528 4.52,-49.989 32.99,-49.989 28.45,0 32.71,24.461 32.71,49.989 0,25.539 -4.26,50.011 -32.71,50.011 z m 32.98,-115.422 v 15.684 c -10.64,-13.816 -22.88,-17.273 -37.24,-17.273 -13.3,0 -25,4.519 -31.91,11.433 -13.31,13.293 -15.97,35.078 -15.97,55.567 0,20.488 2.66,42.296 15.97,55.597 6.91,6.914 18.61,11.434 31.91,11.434 14.36,0 26.34,-3.184 36.97,-16.758 v 73.684 h 19.15 V 786.566 h -18.88" /><path
         id="path36"
         style="fill:#ffffff;fill-opacity:1;fill-rule:nonzero;stroke:none"
         d="m 2425.4,883.102 c -5.06,11.961 -16.76,19.675 -30.6,19.675 -13.83,0 -25.54,-7.714 -30.59,-19.675 -2.93,-7.18 -3.45,-11.172 -3.99,-21.809 h 69.16 c -0.53,10.637 -1.06,14.629 -3.98,21.809 z m -65.18,-36.184 c 0,-28.711 13.56,-45.195 38.57,-45.195 15.16,0 23.94,4.523 34.31,14.882 l 13.04,-11.425 c -13.3,-13.301 -25.54,-20.203 -47.88,-20.203 -34.58,0 -57.19,20.73 -57.19,67 0,42.296 20.48,67.031 53.73,67.031 33.78,0 52.23,-24.473 52.23,-63.301 v -8.789 h -86.81" /><path
         id="path38"
         style="fill:#ffffff;fill-opacity:1;fill-rule:nonzero;stroke:none"
         d="m 2553.22,892.406 c -7.18,7.188 -12.5,9.582 -22.61,9.582 -19.15,0 -31.39,-15.168 -31.39,-35.109 v -80.313 h -19.16 v 130.84 h 19.16 v -15.957 c 7.18,10.91 21.55,17.559 36.7,17.559 12.51,0 22.08,-2.93 31.4,-12.235 l -14.1,-14.367" /><path
         id="path40"
         style="fill:#ffffff;fill-opacity:1;fill-rule:nonzero;stroke:none"
         d="m 2627.76,901.988 c -28.47,0 -32.73,-24.472 -32.73,-48.945 0,-24.465 4.26,-48.926 32.73,-48.926 28.46,0 32.45,24.461 32.45,48.926 0,24.473 -3.99,48.945 -32.45,48.945 z m -2.93,-175.519 c -19.69,0 -30.59,5.058 -44.42,17.558 l 12.51,12.227 c 9.57,-8.504 16.22,-13.027 31.38,-13.027 25.27,0 35.91,17.812 35.91,40.148 v 20.469 c -10.64,-13.567 -22.61,-17.012 -36.71,-17.012 -13.3,0 -24.74,4.793 -31.65,11.707 -13.04,13.008 -15.97,33.223 -15.97,54.504 0,21.277 2.93,41.492 15.97,54.531 6.91,6.914 18.61,11.434 31.91,11.434 14.37,0 26.07,-3.184 36.71,-17.02 v 15.418 h 18.89 V 782.574 c 0,-32.433 -20.21,-56.105 -54.53,-56.105" /><path
         id="path42"
         style="fill:#ffffff;fill-opacity:1;fill-rule:nonzero;stroke:none"
         d="m 2787.72,892.406 c -7.18,7.188 -12.5,9.582 -22.61,9.582 -19.15,0 -31.38,-15.168 -31.38,-35.109 v -80.313 h -19.16 v 130.84 h 19.16 v -15.957 c 7.17,10.91 21.54,17.559 36.69,17.559 12.51,0 22.08,-2.93 31.4,-12.235 l -14.1,-14.367" /><path
         id="path44"
         style="fill:#ffffff;fill-opacity:1;fill-rule:nonzero;stroke:none"
         d="m 2895.44,846.918 h -36.7 c -19.69,0 -29.26,-7.969 -29.26,-23.133 0,-15.148 9.3,-22.336 30.06,-22.336 11.17,0 21.01,0.801 29.25,8.77 4.53,4.258 6.65,11.711 6.65,22.597 z m 0,-60.352 v 12.5 c -10.64,-10.632 -20.21,-14.089 -37.77,-14.089 -18.09,0 -28.73,3.457 -36.97,11.961 -6.39,6.378 -9.85,16.21 -9.85,26.582 0,22.871 15.96,37.773 45.23,37.773 h 39.36 v 12.5 c 0,19.152 -9.58,28.73 -33.51,28.73 -16.76,0 -25.27,-3.992 -32.99,-14.902 l -13.03,11.973 c 11.7,15.156 25,19.414 46.28,19.414 35.12,0 52.4,-15.156 52.4,-43.621 v -88.821 h -19.15" /><path
         id="path46"
         style="fill:#ffffff;fill-opacity:1;fill-rule:nonzero;stroke:none"
         d="m 2998.71,901.988 c -28.47,0 -32.99,-24.472 -32.99,-50.011 0,-25.528 4.52,-49.989 32.99,-49.989 28.45,0 32.71,24.461 32.71,49.989 0,25.539 -4.26,50.011 -32.71,50.011 z m 32.98,-115.422 v 15.684 c -10.64,-13.816 -22.88,-17.273 -37.24,-17.273 -13.3,0 -25,4.519 -31.92,11.433 -13.3,13.293 -15.96,35.078 -15.96,55.567 0,20.488 2.66,42.296 15.96,55.597 6.92,6.914 18.62,11.434 31.92,11.434 14.36,0 26.34,-3.184 36.97,-16.758 l 5,73.684 h 19.15 l -5,-189.368 h -18.88" /><path
         id="path48"
         style="fill:#ffffff;fill-opacity:1;fill-rule:nonzero;stroke:none"
         d="m 3171.02,786.566 v 14.622 c -9.32,-10.637 -22.34,-16.211 -36.98,-16.211 -14.09,0 -25.8,4.246 -33.78,12.234 -9.31,9.035 -13.3,21.523 -13.3,36.68 v 83.515 h 19.15 V 836.82 c 0,-23.144 12.23,-34.832 31.92,-34.832 19.69,0 32.72,11.961 32.72,34.832 v 80.586 h 19.15 v -130.84 h -18.88" /><path
         id="path50"
         style="fill:#ffffff;fill-opacity:1;fill-rule:nonzero;stroke:none"
         d="m 3306.84,846.918 h -36.71 c -19.69,0 -29.26,-7.969 -29.26,-23.133 0,-15.148 9.31,-22.336 30.06,-22.336 11.17,0 21.02,0.801 29.26,8.77 4.52,4.258 6.65,11.711 6.65,22.597 z m 0,-60.352 v 12.5 c -10.64,-10.632 -20.21,-14.089 -37.77,-14.089 -18.09,0 -28.73,3.457 -36.98,11.961 -6.38,6.378 -9.84,16.21 -9.84,26.582 0,22.871 15.96,37.773 45.23,37.773 h 39.36 v 12.5 c 0,19.152 -9.58,28.73 -33.51,28.73 -16.76,0 -25.28,-3.992 -32.99,-14.902 l -13.03,11.973 c 11.7,15.156 25,19.414 46.28,19.414 35.12,0 52.4,-15.156 52.4,-43.621 v -88.821 h -19.15" /><path
         id="path52"
         style="fill:#ffffff;fill-opacity:1;fill-rule:nonzero;stroke:none"
         d="m 3401.58,786.566 c -22.35,0 -33.52,15.684 -33.52,35.09 v 80.332 h -16.48 v 14.629 h 16.48 v 40.965 h 19.15 v -40.965 h 27.93 v -14.629 h -27.93 v -79.797 c 0,-11.972 5.59,-19.14 17.82,-19.14 h 10.11 v -16.485 h -13.56" /><path
         id="path54"
         style="fill:#ffffff;fill-opacity:1;fill-rule:nonzero;stroke:none"
         d="m 3525.52,883.102 c -5.06,11.961 -16.76,19.675 -30.59,19.675 -13.83,0 -25.54,-7.714 -30.59,-19.675 -2.93,-7.18 -3.46,-11.172 -3.99,-21.809 h 69.16 c -0.53,10.637 -1.07,14.629 -3.99,21.809 z m -65.17,-36.184 c 0,-28.711 13.56,-45.195 38.57,-45.195 15.16,0 23.94,4.523 34.31,14.882 l 13.03,-11.425 c -13.3,-13.301 -25.53,-20.203 -47.88,-20.203 -34.58,0 -57.18,20.73 -57.18,67 0,42.296 20.47,67.031 53.73,67.031 33.78,0 53.73,-24.473 53.73,-63.301 v -8.789 h -88.31" /><path
         id="path56"
         style="fill:#ffffff;fill-opacity:1;fill-rule:nonzero;stroke:none"
         d="m 1973.51,485.75 c -22.07,0 -39.36,5.059 -53.73,18.879 l 12.77,12.781 c 10.37,-10.922 24.48,-15.18 40.7,-15.18 21.54,0 34.84,7.719 34.84,23.149 0,11.441 -6.65,17.832 -21.81,19.16 l -21.54,1.852 c -25.54,2.129 -39.11,13.578 -39.11,35.121 0,23.937 20.22,38.297 48.15,38.297 18.62,0 35.38,-4.508 47.08,-14.098 l -12.5,-12.5 c -9.31,7.18 -21.28,10.367 -34.85,10.367 -19.15,0 -29.26,-8.238 -29.26,-21.539 0,-11.18 6.39,-17.82 22.88,-19.148 l 21.01,-1.871 c 22.88,-2.129 38.57,-10.899 38.57,-35.372 0,-25.269 -21.54,-39.898 -53.2,-39.898" /><path
         id="path58"
         style="fill:#ffffff;fill-opacity:1;fill-rule:nonzero;stroke:none"
         d="m 2127.05,593.211 c -6.13,6.109 -14.64,9.57 -23.95,9.57 -9.31,0 -17.56,-3.461 -23.67,-9.57 -9.58,-9.57 -10.65,-25.801 -10.65,-40.43 0,-14.633 1.07,-30.859 10.65,-40.429 6.11,-6.122 14.36,-9.571 23.67,-9.571 9.31,0 17.82,3.449 23.95,9.571 9.57,9.57 10.37,25.796 10.37,40.429 0,14.629 -0.8,30.86 -10.37,40.43 z m 13.56,-92.563 c -9.04,-9.039 -21.55,-14.898 -37.51,-14.898 -15.96,0 -28.46,5.859 -37.5,14.898 -13.3,13.551 -15.97,31.911 -15.97,52.133 0,20.207 2.67,38.571 15.97,52.129 9.04,9.039 21.54,14.899 37.5,14.899 15.96,0 28.47,-5.86 37.51,-14.899 13.3,-13.558 15.96,-31.922 15.96,-52.129 0,-20.222 -2.66,-38.582 -15.96,-52.133" /><path
         id="path60"
         style="fill:#ffffff;fill-opacity:1;fill-rule:nonzero;stroke:none"
         d="m 2240.68,485.75 c -32.99,0 -57.99,22.34 -57.99,67.031 0,44.688 25,67.028 57.99,67.028 18.08,0 29.52,-4.789 43.09,-19.418 l -13.03,-12.243 c -9.85,10.922 -17.56,14.633 -30.06,14.633 -12.76,0 -23.41,-5.043 -30.32,-14.89 -6.13,-8.512 -8.52,-18.629 -8.52,-35.11 0,-16.492 2.39,-26.601 8.52,-35.121 6.91,-9.84 17.56,-14.879 30.32,-14.879 12.5,0 20.21,3.981 30.06,14.879 l 13.03,-12.5 c -13.57,-14.629 -25.01,-19.41 -43.09,-19.41" /><path
         id="path62"
         style="fill:#ffffff;fill-opacity:1;fill-rule:nonzero;stroke:none"
         d="m 2317.55,487.352 v 130.859 h 19.16 V 487.352 Z m -1.06,168.097 V 677 h 21.55 v -21.551 h -21.55" /><path
         id="path64"
         style="fill:#ffffff;fill-opacity:1;fill-rule:nonzero;stroke:none"
         d="m 2451.83,583.891 c -5.06,11.968 -16.76,19.687 -30.59,19.687 -13.83,0 -25.54,-7.719 -30.59,-19.687 -2.93,-7.172 -3.46,-11.172 -3.99,-21.801 h 69.16 c -0.53,10.629 -1.07,14.629 -3.99,21.801 z m -65.17,-36.172 c 0,-28.731 13.56,-45.219 38.57,-45.219 15.16,0 23.94,4.539 34.31,14.91 l 13.03,-11.449 c -13.3,-13.301 -25.53,-20.211 -47.88,-20.211 -34.58,0 -57.19,20.738 -57.19,67.031 0,42.297 20.48,67.028 53.74,67.028 33.77,0 53.73,-24.469 53.73,-63.297 v -8.793 h -88.31" /><path
         id="path66"
         style="fill:#ffffff;fill-opacity:1;fill-rule:nonzero;stroke:none"
         d="m 2549.71,487.352 c -22.34,0 -33.51,15.679 -33.51,35.097 v 80.332 h -16.49 v 14.649 h 16.49 v 40.949 h 19.15 V 617.43 h 27.93 v -14.649 h -27.93 v -79.793 c 0,-11.968 5.58,-19.16 17.82,-19.16 h 10.11 v -16.476 h -13.57" /><path
         id="path68"
         style="fill:#ffffff;fill-opacity:1;fill-rule:nonzero;stroke:none"
         d="m 2636.13,455.691 c -2.67,-7.191 -5.59,-11.972 -9.32,-15.429 -6.91,-6.641 -16.22,-9.043 -25.54,-9.043 h -8.24 v 17.031 h 5.85 c 13.3,0 17.3,4.25 21.54,16.23 l 9.32,25.52 -47.08,128.211 h 20.74 l 35.91,-105.063 35.65,105.063 h 20.75 l -59.58,-162.52" /><path
         id="path70"
         style="fill:#ffffff;fill-opacity:1;fill-rule:nonzero;stroke:none"
         d="m 170.84,526.609 v 687.161 c -0.879,43.6 18.047,54.22 54.219,54.22 H 1341.76 v 45.41 c 0,36.15 -29.32,65.47 -65.47,65.47 H 136.66 c -44.785,2.4 -75.6053,-34.82 -76.6991,-76.72 V 592.07 c 0,-36.148 29.2969,-65.461 65.4491,-65.461 h 45.43" /><path
         id="path72"
         style="fill:#ffffff;fill-opacity:1;fill-rule:nonzero;stroke:none"
         d="m 110.996,355.879 c 23.692,-23.688 56.426,-38.34 92.578,-38.359 H 996.621 L 1278.83,0 v 317.52 h 141.07 c 72.29,0 130.92,58.64 130.92,130.921 v 786.799 c 0,36.17 -14.65,68.89 -38.36,92.6 l -110.9,110.87 c 23.71,-23.69 38.38,-56.42 38.38,-92.59 V 536.801 c 0,-72.301 -36.11,-108.379 -108.4,-108.379 L 92.6953,428.398 C 56.4844,428.422 23.7109,443.129 0,466.859 l 110.996,-110.98" /><path
         id="path74"
         style="fill:#ffffff;fill-opacity:1;fill-rule:nonzero;stroke:none"
         d="m 871.07,1598.46 c 36.153,0 42.95,-6.78 42.95,-42.93 v -76.82 h 98.18 v 101.39 c -2.97,70.02 -32.212,108.3 -108.376,108.42 H 662.34 c -76.172,-0.12 -105.41,-38.4 -108.379,-108.42 v -101.39 h 98.203 v 76.82 c 0,36.15 6.797,42.93 42.93,42.93 H 871.07" /><path
         id="path76"
         style="fill:#ffffff;fill-opacity:1;fill-rule:nonzero;stroke:none"
         d="m 451.953,677.02 c -87.558,0 -145.918,61.05 -145.918,130.164 v 127.019 c 0,69.117 58.36,130.237 145.918,130.237 87.539,0 122.031,-55.47 129.102,-69.963 3.554,-7.227 5.293,-17.676 -5.313,-24.082 l -21.23,-13.692 c -9.707,-6.426 -19.434,-5.644 -26.524,4.024 -7.949,11.23 -26.523,46.623 -76.035,46.623 -49.531,0 -77.832,-36.955 -77.832,-73.147 V 807.184 c 0,-36.164 28.301,-73.137 77.832,-73.137 49.512,0 66.328,32.98 76.035,45.039 7.969,10.43 16.817,12.051 26.524,6.406 l 20.351,-12.851 c 11.485,-7.235 13.262,-15.254 7.95,-24.102 -9.727,-17.676 -43.321,-71.519 -130.86,-71.519" /><path
         id="path78"
         style="fill:#ffffff;fill-opacity:1;fill-rule:nonzero;stroke:none"
         d="m 914.609,685.02 h -23.007 c -7.051,0 -11.465,3.25 -14.141,7.25 -3.516,5.625 -8.828,5.625 -12.363,3.203 -15.918,-8.832 -41.563,-18.453 -76.934,-18.453 -87.519,0 -145.918,61.05 -145.918,130.164 V 1038.7 c 0,11.25 7.09,17.69 19.453,17.69 h 29.199 c 12.383,0 19.454,-6.44 19.454,-17.69 V 807.184 c 0,-36.164 28.3,-73.137 77.812,-73.137 49.512,0 77.813,36.973 77.813,73.137 V 1038.7 c 0,11.25 7.089,17.69 19.453,17.69 h 29.179 c 12.383,0 19.454,-6.44 19.454,-17.69 V 702.719 c 0,-11.231 -7.071,-17.699 -19.454,-17.699" /><path
         id="path80"
         style="fill:#ffffff;fill-opacity:1;fill-rule:nonzero;stroke:none"
         d="m 1145.39,677.02 c -76.05,0 -120.27,42.593 -141.48,73.121 -6.195,8.847 -5.297,17.668 5.31,24.922 l 20.33,12.832 c 9.73,5.644 19.45,3.242 25.65,-4.805 18.57,-23.281 48.63,-49.043 90.19,-49.043 55.7,0 77.81,32.98 77.81,63.516 0,54.628 -77.81,54.628 -77.81,54.628 -86.66,4.024 -136.17,45.02 -136.17,106.094 0,51.485 45.1,106.155 136.17,106.155 50.41,0 87.54,-20.12 110.53,-43.42 8.85,-8.87 7.09,-17.7 -2.64,-24.102 l -21.23,-13.691 c -8.85,-5.645 -19.47,-4.024 -27.42,2.402 -17.68,15.291 -38.01,22.521 -59.24,22.521 -54.8,0 -70.74,-32.951 -70.74,-49.865 0,-47.383 70.74,-49.805 70.74,-49.805 77.81,-4.023 145.9,-35.39 145.9,-110.917 0,-68.321 -53.95,-120.543 -145.9,-120.543" /></g></g></svg>